# xmcd
#
# Track frame offsets: 
#        150
#        14262
#        25405
#        37520
#        52555
#        66357
#        82965
#        95350
#        106972
#        120977
#        133292
#
# Disc length: 1962 seconds
#
# Revision: 2
# Processed by: cddbd v1.5.2PL0 Copyright (c) Steve Scherf et al.
# Submitted via: ExactAudioCopy v1.3
#
DISCID=7b07a80b
DTITLE=Jane Birkin - Lolita Go Home
DYEAR=1975
DGENRE=Chanson
TTITLE0=Lolita Go Home
TTITLE1=What Is This Thing Called Love ?
TTITLE2=Bebe Song
TTITLE3=Where Or When
TTITLE4=Si ca peut te consoler
TTITLE5=Love For Sale
TTITLE6=Just Me And You
TTITLE7=La fille aux claquettes
TTITLE8=Rien pour rien
TTITLE9=French Graffiti
TTITLE10=There's A Small Hotel
EXTD=
EXTT0=
EXTT1=
EXTT2=
EXTT3=
EXTT4=
EXTT5=
EXTT6=
EXTT7=
EXTT8=
EXTT9=
EXTT10=
PLAYORDER=
